#Exported from google sketchup
mtllib model.mtl
v 0.457200 0.228600 -0.000000
v -0.228600 0.228600 0.457200
v -0.228600 0.228600 -0.000000
v 0.457200 0.228600 0.457200
v -0.457200 0.228600 0.457200
v -0.342900 -0.457200 0.457200
v -0.457200 -0.457200 0.457200
v 0.457200 -0.457200 0.457200
v 0.457200 0.228600 0.457200
v -0.228600 0.228600 0.457200
v 0.457200 -0.457200 0.457200
v 0.457200 0.000000 -0.457200
v 0.457200 -0.457200 -0.457200
v 0.457200 0.000000 -0.000000
v 0.457200 0.228600 -0.000000
v 0.457200 0.228600 0.457200
v 0.457200 0.228600 -0.000000
v -0.000000 0.000000 -0.000000
v 0.457200 0.000000 -0.000000
v -0.342900 -0.228600 -0.000000
v -0.000000 -0.228600 -0.000000
v -0.342900 0.000000 -0.000000
v -0.228600 0.000000 -0.000000
v 0.457200 0.228600 -0.457200
v -0.228600 0.000000 -0.457200
v -0.000000 0.000000 -0.457200
v -0.457200 0.000000 -0.457200
v -0.457200 0.457200 -0.457200
v 0.457200 0.457200 -0.457200
v 0.457200 0.228600 -0.000000
v -0.000000 0.000000 -0.457200
v -0.000000 0.000000 -0.000000
v 0.457200 0.228600 -0.457200
v 0.457200 0.457200 -0.457200
v -0.457200 0.457200 -0.000000
v -0.457200 0.457200 -0.457200
v 0.457200 0.457200 -0.000000
v 0.457200 0.228600 -0.000000
v 0.457200 0.457200 -0.457200
v 0.457200 0.228600 -0.457200
v 0.457200 0.457200 -0.000000
v -0.457200 0.457200 -0.000000
v -0.228600 0.228600 -0.000000
v -0.457200 0.228600 -0.000000
v 0.457200 0.228600 -0.000000
v 0.457200 0.457200 -0.000000
v 0.457200 0.000000 -0.457200
v -0.000000 -0.457200 -0.457200
v 0.457200 -0.457200 -0.457200
v -0.000000 -0.228600 -0.457200
v 0.457200 0.000000 -0.457200
v -0.000000 -0.228600 -0.228600
v -0.000000 -0.228600 -0.457200
v -0.000000 -0.228600 -0.000000
v 0.457200 0.000000 -0.000000
v 0.457200 -0.457200 0.457200
v -0.342900 -0.457200 -0.228600
v -0.342900 -0.457200 0.457200
v -0.000000 -0.457200 -0.228600
v -0.000000 -0.457200 -0.457200
v -0.000000 -0.228600 -0.228600
v -0.000000 -0.457200 -0.457200
v -0.000000 -0.228600 -0.457200
v -0.000000 -0.457200 -0.228600
v -0.000000 0.000000 -0.000000
v -0.228600 0.000000 -0.000000
v -0.228600 0.228600 -0.000000
v -0.228600 0.000000 -0.000000
v -0.228600 0.000000 -0.457200
v -0.228600 0.228600 0.457200
v -0.457200 0.000000 -0.457200
v -0.457200 0.457200 -0.457200
v -0.457200 0.228600 -0.000000
v -0.228600 0.228600 -0.000000
v -0.457200 0.000000 -0.457200
v -0.457200 0.228600 -0.000000
v -0.228600 0.000000 -0.457200
v -0.342900 0.000000 -0.000000
v -0.457200 0.228600 0.457200
v -0.457200 0.000000 -0.000000
v -0.228600 0.228600 0.457200
v -0.228600 0.000000 -0.000000
v -0.342900 -0.457200 0.457200
v -0.342900 -0.228600 -0.000000
v -0.342900 0.000000 -0.000000
v -0.342900 -0.457200 -0.228600
v -0.342900 -0.228600 -0.228600
v -0.457200 -0.457200 0.457200
v -0.457200 0.000000 -0.000000
v -0.457200 0.228600 0.457200
v -0.342900 -0.457200 0.457200
v -0.457200 0.000000 -0.000000
v -0.342900 0.000000 -0.000000
v -0.000000 -0.228600 -0.228600
v -0.342900 -0.457200 -0.228600
v -0.000000 -0.457200 -0.228600
v -0.342900 -0.228600 -0.228600
v -0.000000 -0.228600 -0.228600
v -0.342900 -0.228600 -0.000000
v -0.342900 -0.228600 -0.228600
v -0.000000 -0.228600 -0.000000
# 101 elements
vt 0.750000 -0.000000 0.0000
vt 0.000000 -0.500000 0.0000
vt 0.000000 -0.000000 0.0000
vt 0.750000 -0.500000 0.0000
vt 1.000000 -0.750000 0.0000
vt 0.875000 -0.000000 0.0000
vt 1.000000 -0.000000 0.0000
vt 0.000000 -0.000000 0.0000
vt 0.000000 -0.750000 0.0000
vt 0.750000 -0.750000 0.0000
vt 1.000000 -0.000000 0.0000
vt 0.000000 -0.500000 0.0000
vt 0.000000 -0.000000 0.0000
vt 0.500000 -0.500000 0.0000
vt 0.500000 -0.750000 0.0000
vt 1.000000 -0.750000 0.0000
vt 0.875000 -0.500000 0.0000
vt 0.375000 -0.250000 0.0000
vt 0.875000 -0.250000 0.0000
vt 0.000000 -0.000000 0.0000
vt 0.375000 -0.000000 0.0000
vt 0.000000 -0.250000 0.0000
vt 0.125000 -0.250000 0.0000
vt 1.000000 -0.250000 0.0000
vt 0.250000 -0.000000 0.0000
vt 0.500000 -0.000000 0.0000
vt 0.000000 -0.000000 0.0000
vt 0.000000 -0.500000 0.0000
vt 1.000000 -0.500000 0.0000
vt 0.500000 -0.559017 0.0000
vt 0.000000 -0.000000 0.0000
vt 0.500000 -0.000000 0.0000
vt 0.000000 -0.559017 0.0000
vt 1.000000 -0.000000 0.0000
vt 0.000000 -0.500000 0.0000
vt 0.000000 -0.000000 0.0000
vt 1.000000 -0.500000 0.0000
vt 0.500000 -0.000000 0.0000
vt 0.000000 -0.250000 0.0000
vt 0.000000 -0.000000 0.0000
vt 0.500000 -0.250000 0.0000
vt 1.000000 -0.250000 0.0000
vt 0.750000 -0.000000 0.0000
vt 1.000000 -0.000000 0.0000
vt 0.000000 -0.000000 0.0000
vt 0.000000 -0.250000 0.0000
vt 0.500000 -0.500000 0.0000
vt 0.000000 -0.000000 0.0000
vt 0.500000 -0.000000 0.0000
vt 0.000000 -0.250000 0.0000
vt 0.500000 -0.559017 0.0000
vt 0.250000 -0.000000 0.0000
vt 0.500000 -0.000000 0.0000
vt 0.000000 -0.000000 0.0000
vt 0.000000 -0.559017 0.0000
vt 0.000000 -1.000000 0.0000
vt 0.875000 -0.250000 0.0000
vt 0.875000 -1.000000 0.0000
vt 0.500000 -0.250000 0.0000
vt 0.500000 -0.000000 0.0000
vt 0.000000 -0.250000 0.0000
vt 0.250000 -0.000000 0.0000
vt 0.250000 -0.250000 0.0000
vt 0.000000 -0.000000 0.0000
vt 0.000000 -0.500000 0.0000
vt 0.250000 -0.500000 0.0000
vt 0.500000 -0.250000 0.0000
vt 0.500000 -0.000000 0.0000
vt 1.000000 -0.000000 0.0000
vt 0.000000 -0.250000 0.0000
vt 0.500000 -0.000000 0.0000
vt 0.500000 -0.500000 0.0000
vt 0.000000 -0.250000 0.0000
vt 0.000000 -0.559017 0.0000
vt 0.250000 -0.000000 0.0000
vt 0.250000 -0.559017 0.0000
vt 0.000000 -0.000000 0.0000
vt 0.125000 -0.000000 0.0000
vt 0.000000 -0.559017 0.0000
vt 0.000000 -0.000000 0.0000
vt 0.250000 -0.559017 0.0000
vt 0.250000 -0.000000 0.0000
vt 0.000000 -0.000000 0.0000
vt 0.500000 -0.250000 0.0000
vt 0.500000 -0.500000 0.0000
vt 0.750000 -0.000000 0.0000
vt 0.750000 -0.250000 0.0000
vt 0.000000 -0.000000 0.0000
vt 0.500000 -0.500000 0.0000
vt 0.000000 -0.750000 0.0000
vt 0.125000 -0.000000 0.0000
vt 0.000000 -0.707107 0.0000
vt 0.125000 -0.707107 0.0000
vt 0.375000 -0.250000 0.0000
vt 0.000000 -0.000000 0.0000
vt 0.375000 -0.000000 0.0000
vt 0.000000 -0.250000 0.0000
vt 0.375000 -0.000000 0.0000
vt 0.000000 -0.250000 0.0000
vt 0.000000 -0.000000 0.0000
vt 0.375000 -0.250000 0.0000
# 101 elements
vn 0.000000 1.000000 0.000000
vn 0.000000 0.000000 1.000000
vn 1.000000 0.000000 0.000000
vn 0.000000 0.000000 -1.000000
vn 0.447214 -0.894427 0.000000
vn -0.447214 0.894427 -0.000000
vn 0.000000 -1.000000 0.000000
vn -1.000000 0.000000 0.000000
vn 0.000000 -0.894427 0.447214
vn 0.000000 0.894427 -0.447214
vn 0.000000 -0.707107 -0.707107
# 11 elements
#  60 faces
usemtl _Material3_dirt_png
f 3/3/1 2/2/1 1/1/1
f 4/4/1 1/1/1 2/2/1
f 7/7/2 6/6/2 5/5/2
f 8/8/2 5/5/2 6/6/2
f 9/9/2 5/5/2 8/8/2
f 10/10/2 5/5/2 9/9/2
f 13/13/3 12/12/3 11/11/3
f 14/14/3 11/11/3 12/12/3
f 15/15/3 11/11/3 14/14/3
f 16/16/3 11/11/3 15/15/3
f 19/19/4 18/18/4 17/17/4
f 21/21/4 20/20/4 19/19/4
f 22/22/4 19/19/4 20/20/4
f 18/18/4 19/19/4 22/22/4
f 23/23/4 18/18/4 22/22/4
f 26/26/4 25/25/4 24/24/4
f 27/27/4 24/24/4 25/25/4
f 28/28/4 24/24/4 27/27/4
f 29/29/4 24/24/4 28/28/4
f 32/32/5 31/31/5 30/30/5
f 33/33/5 30/30/5 31/31/5
f 36/36/1 35/35/1 34/34/1
f 37/37/1 34/34/1 35/35/1
f 40/40/3 39/39/3 38/38/3
f 41/41/3 38/38/3 39/39/3
f 44/44/2 43/43/2 42/42/2
f 45/45/2 42/42/2 43/43/2
f 46/46/2 42/42/2 45/45/2
f 49/49/4 48/48/4 47/47/4
f 50/50/4 47/47/4 48/48/4
f 53/53/6 52/52/6 51/51/6
f 54/54/6 51/51/6 52/52/6
f 55/55/6 51/51/6 54/54/6
f 58/58/7 57/57/7 56/56/7
f 59/59/7 56/56/7 57/57/7
f 60/60/7 56/56/7 59/59/7
f 13/13/7 56/56/7 60/60/7
f 63/63/8 62/62/8 61/61/8
f 64/64/8 61/61/8 62/62/8
f 66/66/7 25/25/7 65/65/7
f 31/31/7 65/65/7 25/25/7
f 69/69/8 68/68/8 67/67/8
f 70/70/8 67/67/8 68/68/8
f 72/72/8 71/71/8 35/35/8
f 73/73/8 35/35/8 71/71/8
f 76/76/9 75/75/9 74/74/9
f 77/77/9 74/74/9 75/75/9
f 80/80/10 79/79/10 78/78/10
f 81/81/10 78/78/10 79/79/10
f 82/82/10 78/78/10 81/81/10
f 85/85/8 84/84/8 83/83/8
f 87/87/8 86/86/8 84/84/8
f 83/83/8 84/84/8 86/86/8
f 90/90/8 89/89/8 88/88/8
f 88/88/11 92/92/11 91/91/11
f 93/93/11 91/91/11 92/92/11
f 96/96/4 95/95/4 94/94/4
f 97/97/4 94/94/4 95/95/4
f 100/100/1 99/99/1 98/98/1
f 101/101/1 98/98/1 99/99/1